<svg width="1133" height="289" viewBox="0 0 1133 289" fill="none" xmlns="http://www.w3.org/2000/svg">
<g filter="url(#filter0_d_522_5)">
<path d="M283.341 143.053C283.341 219.387 221.46 281.268 145.126 281.268C68.7918 281.268 6.91076 219.387 6.91076 143.053C6.91076 66.7185 68.7918 4.83753 145.126 4.83753C221.46 4.83753 283.341 66.7185 283.341 143.053Z" fill="#387EA5"/>
<g filter="url(#filter1_d_522_5)">
<path fill-rule="evenodd" clip-rule="evenodd" d="M148.29 77.2186H76.4912C70.0028 77.2186 64.7429 82.4785 64.7429 88.9668V160.766C64.7429 167.254 70.0028 172.514 76.4911 172.514H148.29C154.779 172.514 160.039 167.254 160.039 160.766V88.9669C160.039 82.4785 154.779 77.2186 148.29 77.2186ZM76.4912 70.3078C66.1861 70.3078 57.8321 78.6617 57.8321 88.9668V160.766C57.8321 171.071 66.186 179.425 76.4911 179.425H148.29C158.595 179.425 166.949 171.071 166.949 160.766V88.9669C166.949 78.6617 158.595 70.3078 148.29 70.3078H76.4912Z" fill="white"/>
</g>
<g filter="url(#filter2_d_522_5)">
<path d="M50.5576 204.886L57.8321 157.602L70.5624 177.606H156.529L50.5576 204.886Z" fill="white"/>
</g>
<g filter="url(#filter3_d_522_5)">
<g filter="url(#filter4_d_522_5)">
<path fill-rule="evenodd" clip-rule="evenodd" d="M138.324 208.887H210.123C216.612 208.887 221.872 203.627 221.872 197.138V125.339C221.872 118.851 216.612 113.591 210.123 113.591H138.324C131.836 113.591 126.576 118.851 126.576 125.339V197.138C126.576 203.627 131.836 208.887 138.324 208.887ZM210.123 215.797C220.428 215.797 228.782 207.443 228.782 197.138V125.339C228.782 115.034 220.428 106.68 210.123 106.68H138.324C128.019 106.68 119.665 115.034 119.665 125.339V197.138C119.665 207.443 128.019 215.797 138.324 215.797H210.123Z" fill="white"/>
</g>
<path d="M236.348 81.5469L228.879 128.54L215.81 108.658H129.922L236.348 81.5469Z" fill="white"/>
</g>
</g>
<path d="M372.47 67.8C381.223 67.8 388.243 70.01 393.53 74.43C398.903 78.7633 402.587 84.44 404.58 91.46L393.53 93.67C391.797 88.5567 389.067 84.5267 385.34 81.58C381.7 78.5467 377.41 77.03 372.47 77.03C365.623 77.03 359.947 79.89 355.44 85.61C350.933 91.33 348.68 99.3033 348.68 109.53C348.68 119.67 350.673 127.817 354.66 133.97C358.733 140.123 364.67 143.2 372.47 143.2C378.97 143.2 384.083 141.51 387.81 138.13C391.623 134.663 393.53 130.113 393.53 124.48H404.58C404.58 133.06 401.633 139.863 395.74 144.89C389.933 149.917 381.917 152.43 371.69 152.43C361.55 152.43 353.317 148.53 346.99 140.73C340.75 132.93 337.63 122.487 337.63 109.4C337.63 96.3133 340.88 86.13 347.38 78.85C353.88 71.4833 362.243 67.8 372.47 67.8ZM446.217 87.3C454.883 87.3 461.86 90.1167 467.147 95.75C472.52 101.383 475.207 109.443 475.207 119.93C475.207 130.33 472.52 138.347 467.147 143.98C461.86 149.613 454.883 152.43 446.217 152.43C437.55 152.43 430.53 149.613 425.157 143.98C419.87 138.347 417.227 130.33 417.227 119.93C417.227 109.443 419.87 101.383 425.157 95.75C430.53 90.1167 437.55 87.3 446.217 87.3ZM464.807 119.93C464.807 112.477 463.247 106.67 460.127 102.51C457.007 98.2633 452.413 96.14 446.347 96.14C440.367 96.14 435.773 98.2633 432.567 102.51C429.36 106.67 427.757 112.477 427.757 119.93C427.757 127.297 429.273 133.103 432.307 137.35C435.34 141.51 439.847 143.59 445.827 143.59C451.893 143.59 456.573 141.51 459.867 137.35C463.16 133.103 464.807 127.297 464.807 119.93ZM504.703 100.82C508.777 91.8067 515.753 87.3 525.633 87.3C533 87.3 538.72 89.7267 542.793 94.58C546.953 99.4333 549.033 106.063 549.033 114.47V151H538.893V114.47C538.893 108.49 537.463 103.983 534.603 100.95C531.83 97.9167 527.843 96.4 522.643 96.4C517.443 96.4 513.24 98.5233 510.033 102.77C506.827 107.017 505.137 112.91 504.963 120.45V151H494.693V88.86H503.533L504.703 100.82ZM583.033 100.82C587.107 91.8067 594.083 87.3 603.963 87.3C611.33 87.3 617.05 89.7267 621.123 94.58C625.283 99.4333 627.363 106.063 627.363 114.47V151H617.223V114.47C617.223 108.49 615.793 103.983 612.933 100.95C610.16 97.9167 606.173 96.4 600.973 96.4C595.773 96.4 591.57 98.5233 588.363 102.77C585.157 107.017 583.467 112.91 583.293 120.45V151H573.023V88.86H581.863L583.033 100.82ZM672.934 144.11C681.514 144.11 686.41 140.34 687.624 132.8H698.154C697.2 139.04 694.427 143.893 689.834 147.36C685.327 150.74 679.694 152.43 672.934 152.43C664.614 152.43 657.854 149.483 652.654 143.59C647.454 137.61 644.854 129.68 644.854 119.8C644.854 109.92 647.454 102.033 652.654 96.14C657.94 90.2467 664.917 87.3 673.584 87.3C682.337 87.3 688.837 90.68 693.084 97.44C697.417 104.2 698.934 112.433 697.634 122.14H655.124C655.124 128.553 656.684 133.84 659.804 138C662.924 142.073 667.3 144.11 672.934 144.11ZM680.474 97.05C678.48 96.01 676.054 95.49 673.194 95.49C667.907 95.49 663.704 97.31 660.584 100.95C657.55 104.503 655.774 108.967 655.254 114.34H688.404C688.404 105.673 685.76 99.91 680.474 97.05ZM739.058 87.3C746.424 87.3 752.274 89.2067 756.608 93.02C760.941 96.7467 763.758 101.427 765.058 107.06L754.658 107.97C753.531 104.33 751.711 101.513 749.198 99.52C746.684 97.44 743.911 96.4 740.878 96.4C735.331 96.4 730.824 98.48 727.358 102.64C723.978 106.8 722.288 112.477 722.288 119.67C722.288 126.777 723.934 132.497 727.228 136.83C730.608 141.163 734.768 143.33 739.708 143.33C744.734 143.33 748.461 142.203 750.888 139.95C753.401 137.61 754.658 134.317 754.658 130.07H765.188C765.188 136.743 762.848 142.16 758.168 146.32C753.574 150.393 747.551 152.43 740.098 152.43C732.211 152.43 725.494 149.44 719.948 143.46C714.488 137.48 711.758 129.55 711.758 119.67C711.758 109.703 714.488 101.817 719.948 96.01C725.408 90.2033 731.778 87.3 739.058 87.3ZM817.792 149.18C810.339 152.647 803.535 153.383 797.382 151.39C792.962 150.003 789.842 147.1 788.022 142.68C787.069 140.513 786.592 137.913 786.592 134.88V96.66H776.582V88.86H786.592V71.57H796.732V88.86H816.232V96.66H796.732V134.75C796.732 141.077 799.679 144.24 805.572 144.24C808.779 144.24 812.375 143.46 816.362 141.9L817.792 149.18ZM895.789 113.43C895.789 106.15 893.232 102.51 888.119 102.51C883.006 102.51 878.412 104.633 874.339 108.88C870.266 113.04 868.229 118.327 868.229 124.74C868.229 129.333 869.399 132.887 871.739 135.4C874.166 137.913 877.156 139.17 880.709 139.17C884.262 139.17 887.166 138.173 889.419 136.18C891.672 134.1 893.796 131.11 895.789 127.21V113.43ZM904.369 133.06C904.369 137.48 906.059 139.69 909.439 139.69C911.172 139.69 913.036 139.127 915.029 138C917.109 136.787 918.972 135.053 920.619 132.8C924.606 127.513 926.599 120.753 926.599 112.52C926.599 102.207 923.089 93.7133 916.069 87.04C909.049 80.3667 899.516 77.03 887.469 77.03C880.362 77.03 873.906 78.2433 868.099 80.67C862.292 83.0967 857.352 86.3467 853.279 90.42C844.612 99.0867 840.279 109.877 840.279 122.79C840.279 135.703 844.872 146.147 854.059 154.12C863.246 162.18 875.856 166.21 891.889 166.21V174.53C873.429 174.53 858.392 169.547 846.779 159.58C841.319 154.9 837.116 149.353 834.169 142.94C831.222 136.44 829.749 129.333 829.749 121.62C829.749 113.907 831.179 106.757 834.039 100.17C836.899 93.5833 840.886 87.9067 845.999 83.14C851.112 78.2867 857.179 74.5167 864.199 71.83C871.306 69.1433 878.802 67.8 886.689 67.8C894.576 67.8 901.596 68.97 907.749 71.31C913.902 73.65 919.146 76.8567 923.479 80.93C927.812 84.9167 931.192 89.64 933.619 95.1C936.046 100.56 937.259 106.193 937.259 112C937.259 122.573 934.442 131.11 928.809 137.61C923.262 144.11 916.762 147.36 909.309 147.36C905.582 147.36 902.592 146.58 900.339 145.02C898.086 143.46 896.742 141.207 896.309 138.26L895.919 136.18C894.359 139.473 892.279 142.16 889.679 144.24C887.079 146.32 884.046 147.36 880.579 147.36C874.166 147.36 868.879 145.237 864.719 140.99C860.646 136.743 858.609 131.37 858.609 124.87C858.609 116.29 861.469 109.097 867.189 103.29C872.909 97.3967 879.712 94.45 887.599 94.45C892.799 94.45 896.872 96.01 899.819 99.13C902.852 102.25 904.369 106.973 904.369 113.3V133.06ZM984.765 67.8C993.518 67.8 1000.54 70.01 1005.82 74.43C1011.2 78.7633 1014.88 84.44 1016.87 91.46L1005.82 93.67C1004.09 88.5567 1001.36 84.5267 997.635 81.58C993.995 78.5467 989.705 77.03 984.765 77.03C977.918 77.03 972.242 79.89 967.735 85.61C963.228 91.33 960.975 99.3033 960.975 109.53C960.975 119.67 962.968 127.817 966.955 133.97C971.028 140.123 976.965 143.2 984.765 143.2C991.265 143.2 996.378 141.51 1000.1 138.13C1003.92 134.663 1005.82 130.113 1005.82 124.48H1016.87C1016.87 133.06 1013.93 139.863 1008.03 144.89C1002.23 149.917 994.212 152.43 983.985 152.43C973.845 152.43 965.612 148.53 959.285 140.73C953.045 132.93 949.925 122.487 949.925 109.4C949.925 96.3133 953.175 86.13 959.675 78.85C966.175 71.4833 974.538 67.8 984.765 67.8ZM1074.63 110.7C1074.63 105.067 1073.46 101.037 1071.12 98.61C1068.78 96.1833 1065.36 94.97 1060.85 94.97C1056.43 94.97 1052.83 95.88 1050.06 97.7C1047.37 99.4333 1046.03 102.207 1046.03 106.02H1034.72C1034.72 96.4867 1039.83 90.5933 1050.06 88.34C1053.18 87.6467 1056.56 87.3 1060.2 87.3C1067.91 87.3 1073.94 89.25 1078.27 93.15C1082.6 97.05 1084.77 102.987 1084.77 110.96V151H1075.93L1074.89 140.6C1071.08 148.487 1064.19 152.43 1054.22 152.43C1047.55 152.43 1042.17 150.567 1038.1 146.84C1034.11 143.113 1032.12 138.477 1032.12 132.93C1032.12 127.383 1034.33 123.05 1038.75 119.93C1043.26 116.81 1048.85 115.25 1055.52 115.25C1062.19 115.25 1068.56 116.377 1074.63 118.63V110.7ZM1074.63 125.13C1068.48 123.397 1063.1 122.53 1058.51 122.53C1053.92 122.53 1050.19 123.353 1047.33 125C1044.47 126.647 1043.04 129.247 1043.04 132.8C1043.04 140.6 1047.46 144.5 1056.3 144.5C1061.33 144.5 1065.62 142.723 1069.17 139.17C1072.81 135.53 1074.63 130.85 1074.63 125.13ZM1108.9 62.47H1119.17V151H1108.9V62.47Z" fill="black"/>
<path d="M381.16 212.44C380.48 208.76 377.78 206.92 373.06 206.92C370.54 206.92 368.6 207.48 367.24 208.6C365.88 209.68 365.2 211 365.2 212.56C365.2 214.08 365.62 215.24 366.46 216.04C367.3 216.84 368.66 217.54 370.54 218.14L378.4 220.84C381.08 221.76 383.2 223.02 384.76 224.62C386.36 226.22 387.16 228.48 387.16 231.4C387.16 234.28 385.92 236.72 383.44 238.72C380.96 240.68 377.64 241.66 373.48 241.66C369.32 241.66 365.9 240.62 363.22 238.54C360.58 236.42 359.22 233.46 359.14 229.66H363.76C363.76 232.14 364.62 234.04 366.34 235.36C368.1 236.68 370.34 237.34 373.06 237.34C375.82 237.34 378 236.74 379.6 235.54C381.2 234.3 382 232.86 382 231.22C382 229.54 381.5 228.22 380.5 227.26C379.54 226.3 378.1 225.5 376.18 224.86L369.52 222.4C366.4 221.36 364.04 220.12 362.44 218.68C360.84 217.24 360.04 215.14 360.04 212.38C360.04 209.58 361.16 207.26 363.4 205.42C365.64 203.54 368.78 202.6 372.82 202.6C376.86 202.6 379.94 203.5 382.06 205.3C384.22 207.06 385.46 209.44 385.78 212.44H381.16ZM401.828 216.7C403.708 213.3 406.508 211.6 410.228 211.6C413.988 211.6 417.108 212.98 419.588 215.74C422.108 218.5 423.368 222.14 423.368 226.66C423.368 231.18 422.108 234.82 419.588 237.58C417.068 240.3 413.968 241.66 410.288 241.66C406.608 241.66 403.888 240.28 402.128 237.52V255.1H397.388V212.32H401.288L401.828 216.7ZM410.048 237.46C412.288 237.46 414.248 236.5 415.928 234.58C417.648 232.66 418.508 230.04 418.508 226.72C418.508 223.36 417.688 220.7 416.048 218.74C414.448 216.78 412.488 215.8 410.168 215.8C407.848 215.8 405.948 216.54 404.468 218.02C402.988 219.46 402.208 221.42 402.128 223.9V229.36C402.128 231.88 402.888 233.86 404.408 235.3C405.928 236.74 407.808 237.46 410.048 237.46ZM443.333 211.6C447.333 211.6 450.553 212.9 452.993 215.5C455.473 218.1 456.713 221.82 456.713 226.66C456.713 231.46 455.473 235.16 452.993 237.76C450.553 240.36 447.333 241.66 443.333 241.66C439.333 241.66 436.093 240.36 433.613 237.76C431.173 235.16 429.953 231.46 429.953 226.66C429.953 221.82 431.173 218.1 433.613 215.5C436.093 212.9 439.333 211.6 443.333 211.6ZM451.913 226.66C451.913 223.22 451.193 220.54 449.753 218.62C448.313 216.66 446.193 215.68 443.393 215.68C440.633 215.68 438.513 216.66 437.033 218.62C435.553 220.54 434.813 223.22 434.813 226.66C434.813 230.06 435.513 232.74 436.913 234.7C438.313 236.62 440.393 237.58 443.153 237.58C445.953 237.58 448.113 236.62 449.633 234.7C451.153 232.74 451.913 230.06 451.913 226.66ZM470.327 217.84C472.207 213.68 475.427 211.6 479.987 211.6C483.387 211.6 486.027 212.72 487.907 214.96C489.827 217.2 490.787 220.26 490.787 224.14V241H486.107V224.14C486.107 221.38 485.447 219.3 484.127 217.9C482.847 216.5 481.007 215.8 478.607 215.8C476.207 215.8 474.267 216.78 472.787 218.74C471.307 220.7 470.527 223.42 470.447 226.9V241H465.707V212.32H469.787L470.327 217.84ZM500.419 219.34C500.419 216.98 501.419 215.1 503.419 213.7C505.459 212.3 508.199 211.6 511.639 211.6C515.079 211.6 517.759 212.32 519.679 213.76C521.639 215.2 522.659 217.02 522.739 219.22H518.119C517.759 216.62 515.559 215.32 511.519 215.32C509.559 215.32 508.039 215.76 506.959 216.64C505.919 217.52 505.399 218.48 505.399 219.52C505.399 220.52 505.799 221.38 506.599 222.1C507.399 222.78 508.679 223.38 510.439 223.9L516.199 225.82C518.639 226.58 520.499 227.56 521.779 228.76C523.099 229.92 523.759 231.54 523.759 233.62C523.759 235.66 522.699 237.52 520.579 239.2C518.459 240.84 515.499 241.66 511.699 241.66C507.899 241.66 504.939 240.82 502.819 239.14C500.699 237.42 499.579 235.22 499.459 232.54H504.019C504.099 234.34 504.819 235.7 506.179 236.62C507.579 237.5 509.319 237.94 511.399 237.94C513.479 237.94 515.199 237.5 516.559 236.62C517.919 235.74 518.599 234.7 518.599 233.5C518.599 232.26 518.199 231.32 517.399 230.68C516.599 230.04 515.299 229.48 513.499 229L507.919 227.14C502.919 225.66 500.419 223.06 500.419 219.34ZM543.821 211.6C547.821 211.6 551.041 212.9 553.481 215.5C555.961 218.1 557.201 221.82 557.201 226.66C557.201 231.46 555.961 235.16 553.481 237.76C551.041 240.36 547.821 241.66 543.821 241.66C539.821 241.66 536.581 240.36 534.101 237.76C531.661 235.16 530.441 231.46 530.441 226.66C530.441 221.82 531.661 218.1 534.101 215.5C536.581 212.9 539.821 211.6 543.821 211.6ZM552.401 226.66C552.401 223.22 551.681 220.54 550.241 218.62C548.801 216.66 546.681 215.68 543.881 215.68C541.121 215.68 539.001 216.66 537.521 218.62C536.041 220.54 535.301 223.22 535.301 226.66C535.301 230.06 536.001 232.74 537.401 234.7C538.801 236.62 540.881 237.58 543.641 237.58C546.441 237.58 548.601 236.62 550.121 234.7C551.641 232.74 552.401 230.06 552.401 226.66ZM577.955 216.34C573.435 216.34 571.095 219.9 570.935 227.02V241H566.195V212.26H570.935V217.78C572.375 213.78 574.915 211.78 578.555 211.78C579.715 211.78 580.815 211.96 581.855 212.32L581.615 216.94C580.415 216.54 579.195 216.34 577.955 216.34ZM599.007 237.82C602.967 237.82 605.227 236.08 605.787 232.6H610.647C610.207 235.48 608.927 237.72 606.807 239.32C604.727 240.88 602.127 241.66 599.007 241.66C595.167 241.66 592.047 240.3 589.647 237.58C587.247 234.82 586.047 231.16 586.047 226.6C586.047 222.04 587.247 218.4 589.647 215.68C592.087 212.96 595.307 211.6 599.307 211.6C603.347 211.6 606.347 213.16 608.307 216.28C610.307 219.4 611.007 223.2 610.407 227.68H590.787C590.787 230.64 591.507 233.08 592.947 235C594.387 236.88 596.407 237.82 599.007 237.82ZM602.487 216.1C601.567 215.62 600.447 215.38 599.127 215.38C596.687 215.38 594.747 216.22 593.307 217.9C591.907 219.54 591.087 221.6 590.847 224.08H606.147C606.147 220.08 604.927 217.42 602.487 216.1ZM638.766 216.58V200.14H643.446V241H639.606L639.006 236.2C638.086 238 636.866 239.36 635.346 240.28C633.826 241.2 632.166 241.66 630.366 241.66C626.726 241.66 623.666 240.26 621.186 237.46C618.746 234.66 617.526 231.02 617.526 226.54C617.526 222.02 618.726 218.4 621.126 215.68C623.566 212.96 626.626 211.6 630.306 211.6C634.026 211.6 636.846 213.26 638.766 216.58ZM630.606 215.8C628.286 215.8 626.326 216.78 624.726 218.74C623.166 220.7 622.386 223.32 622.386 226.6C622.386 229.88 623.186 232.52 624.786 234.52C626.386 236.48 628.306 237.46 630.546 237.46C632.786 237.46 634.686 236.72 636.246 235.24C637.846 233.72 638.686 231.7 638.766 229.18V224.5C638.766 221.82 637.986 219.7 636.426 218.14C634.866 216.58 632.926 215.8 630.606 215.8ZM674.648 216.58C676.568 213.26 679.368 211.6 683.048 211.6C686.728 211.6 689.788 212.98 692.228 215.74C694.668 218.46 695.888 222.08 695.888 226.6C695.888 231.08 694.648 234.72 692.168 237.52C689.688 240.28 686.668 241.66 683.108 241.66C681.188 241.66 679.448 241.18 677.888 240.22C676.368 239.26 675.168 237.84 674.288 235.96L673.208 241H669.908V200.14H674.648V216.58ZM682.748 215.8C680.468 215.8 678.568 216.54 677.048 218.02C675.528 219.46 674.728 221.48 674.648 224.08V228.76C674.648 231.4 675.428 233.52 676.988 235.12C678.588 236.68 680.508 237.46 682.748 237.46C684.988 237.46 686.928 236.48 688.568 234.52C690.208 232.52 691.028 229.88 691.028 226.6C691.028 223.32 690.208 220.7 688.568 218.74C686.968 216.78 685.028 215.8 682.748 215.8ZM699.187 249.34C701.147 250.86 703.207 251.62 705.367 251.62C706.967 251.62 708.347 250.82 709.507 249.22C710.347 248.06 711.107 246.3 711.787 243.94L712.627 241L700.867 212.32H706.147L714.847 235.18L721.627 212.32H726.427L715.687 246.7C714.767 249.62 713.547 251.86 712.027 253.42C710.547 254.98 708.647 255.76 706.327 255.76C704.047 255.76 701.667 255.06 699.187 253.66V249.34ZM763.306 240.16C759.866 241.76 756.726 242.1 753.886 241.18C751.846 240.54 750.406 239.2 749.566 237.16C749.126 236.16 748.906 234.96 748.906 233.56V215.92H744.286V212.32H748.906V204.34H753.586V212.32H762.586V215.92H753.586V233.5C753.586 236.42 754.946 237.88 757.666 237.88C759.146 237.88 760.806 237.52 762.646 236.8L763.306 240.16ZM775.605 217.6C777.525 213.6 780.705 211.6 785.145 211.6C788.545 211.6 791.185 212.72 793.065 214.96C794.985 217.2 795.945 220.26 795.945 224.14V241H791.265V224.14C791.265 221.38 790.605 219.3 789.285 217.9C788.005 216.5 786.145 215.8 783.705 215.8C781.265 215.8 779.305 216.84 777.825 218.92C776.345 220.96 775.605 223.8 775.605 227.44V241H770.865V200.14H775.605V217.6ZM816.976 237.82C820.936 237.82 823.196 236.08 823.756 232.6H828.616C828.176 235.48 826.896 237.72 824.776 239.32C822.696 240.88 820.096 241.66 816.976 241.66C813.136 241.66 810.016 240.3 807.616 237.58C805.216 234.82 804.016 231.16 804.016 226.6C804.016 222.04 805.216 218.4 807.616 215.68C810.056 212.96 813.276 211.6 817.276 211.6C821.316 211.6 824.316 213.16 826.276 216.28C828.276 219.4 828.976 223.2 828.376 227.68H808.756C808.756 230.64 809.476 233.08 810.916 235C812.356 236.88 814.376 237.82 816.976 237.82ZM820.456 216.1C819.536 215.62 818.416 215.38 817.096 215.38C814.656 215.38 812.716 216.22 811.276 217.9C809.876 219.54 809.056 221.6 808.816 224.08H824.116C824.116 220.08 822.896 217.42 820.456 216.1ZM860.711 203.26H866.471L879.131 241H874.211L870.971 231.4H855.971L852.731 241H847.751L860.711 203.26ZM857.231 227.68H869.771L863.531 209.08L857.231 227.68ZM906.863 212.44C906.183 208.76 903.483 206.92 898.763 206.92C896.243 206.92 894.303 207.48 892.943 208.6C891.583 209.68 890.903 211 890.903 212.56C890.903 214.08 891.323 215.24 892.163 216.04C893.003 216.84 894.363 217.54 896.243 218.14L904.103 220.84C906.783 221.76 908.903 223.02 910.463 224.62C912.063 226.22 912.863 228.48 912.863 231.4C912.863 234.28 911.623 236.72 909.143 238.72C906.663 240.68 903.343 241.66 899.183 241.66C895.023 241.66 891.603 240.62 888.923 238.54C886.283 236.42 884.923 233.46 884.843 229.66H889.463C889.463 232.14 890.323 234.04 892.043 235.36C893.803 236.68 896.043 237.34 898.763 237.34C901.523 237.34 903.703 236.74 905.303 235.54C906.903 234.3 907.703 232.86 907.703 231.22C907.703 229.54 907.203 228.22 906.203 227.26C905.243 226.3 903.803 225.5 901.883 224.86L895.223 222.4C892.103 221.36 889.743 220.12 888.143 218.68C886.543 217.24 885.743 215.14 885.743 212.38C885.743 209.58 886.863 207.26 889.103 205.42C891.343 203.54 894.483 202.6 898.523 202.6C902.563 202.6 905.643 203.5 907.763 205.3C909.923 207.06 911.163 209.44 911.483 212.44H906.863ZM926.991 203.26V227.38C926.991 230.9 927.871 233.44 929.631 235C931.391 236.56 933.711 237.34 936.591 237.34C939.471 237.34 941.791 236.56 943.551 235C945.311 233.44 946.191 230.9 946.191 227.38V203.26H950.931V227.38C950.931 232.1 949.631 235.66 947.031 238.06C944.431 240.46 940.931 241.66 936.531 241.66C932.171 241.66 928.691 240.46 926.091 238.06C923.531 235.66 922.251 232.1 922.251 227.38V203.26H926.991ZM975.429 202.6C979.469 202.6 982.709 203.62 985.149 205.66C987.629 207.66 989.329 210.28 990.249 213.52L985.149 214.54C984.349 212.18 983.089 210.32 981.369 208.96C979.689 207.56 977.709 206.86 975.429 206.86C972.269 206.86 969.649 208.18 967.569 210.82C965.489 213.46 964.449 217.14 964.449 221.86C964.449 226.54 965.369 230.3 967.209 233.14C969.089 235.98 971.829 237.4 975.429 237.4C978.429 237.4 980.789 236.62 982.509 235.06C984.269 233.46 985.149 231.36 985.149 228.76H990.249C990.249 232.72 988.889 235.86 986.169 238.18C983.489 240.5 979.789 241.66 975.069 241.66C970.389 241.66 966.589 239.86 963.669 236.26C960.789 232.66 959.349 227.84 959.349 221.8C959.349 215.76 960.849 211.06 963.849 207.7C966.849 204.3 970.709 202.6 975.429 202.6Z" fill="black"/>
<defs>
<filter id="filter0_d_522_5" x="4.14645" y="4.83753" width="281.959" height="281.959" filterUnits="userSpaceOnUse" color-interpolation-filters="sRGB">
<feFlood flood-opacity="0" result="BackgroundImageFix"/>
<feColorMatrix in="SourceAlpha" type="matrix" values="0 0 0 0 0 0 0 0 0 0 0 0 0 0 0 0 0 0 127 0" result="hardAlpha"/>
<feOffset dy="2.7643"/>
<feGaussianBlur stdDeviation="1.38215"/>
<feColorMatrix type="matrix" values="0 0 0 0 0 0 0 0 0 0 0 0 0 0 0 0 0 0 0.25 0"/>
<feBlend mode="normal" in2="BackgroundImageFix" result="effect1_dropShadow_522_5"/>
<feBlend mode="normal" in="SourceGraphic" in2="effect1_dropShadow_522_5" result="shape"/>
</filter>
<filter id="filter1_d_522_5" x="55.0678" y="70.3078" width="114.646" height="114.646" filterUnits="userSpaceOnUse" color-interpolation-filters="sRGB">
<feFlood flood-opacity="0" result="BackgroundImageFix"/>
<feColorMatrix in="SourceAlpha" type="matrix" values="0 0 0 0 0 0 0 0 0 0 0 0 0 0 0 0 0 0 127 0" result="hardAlpha"/>
<feOffset dy="2.7643"/>
<feGaussianBlur stdDeviation="1.38215"/>
<feColorMatrix type="matrix" values="0 0 0 0 0 0 0 0 0 0 0 0 0 0 0 0 0 0 0.25 0"/>
<feBlend mode="normal" in2="BackgroundImageFix" result="effect1_dropShadow_522_5"/>
<feBlend mode="normal" in="SourceGraphic" in2="effect1_dropShadow_522_5" result="shape"/>
</filter>
<filter id="filter2_d_522_5" x="47.7933" y="157.602" width="111.5" height="52.8127" filterUnits="userSpaceOnUse" color-interpolation-filters="sRGB">
<feFlood flood-opacity="0" result="BackgroundImageFix"/>
<feColorMatrix in="SourceAlpha" type="matrix" values="0 0 0 0 0 0 0 0 0 0 0 0 0 0 0 0 0 0 127 0" result="hardAlpha"/>
<feOffset dy="2.7643"/>
<feGaussianBlur stdDeviation="1.38215"/>
<feColorMatrix type="matrix" values="0 0 0 0 0 0 0 0 0 0 0 0 0 0 0 0 0 0 0.25 0"/>
<feBlend mode="normal" in2="BackgroundImageFix" result="effect1_dropShadow_522_5"/>
<feBlend mode="normal" in="SourceGraphic" in2="effect1_dropShadow_522_5" result="shape"/>
</filter>
<filter id="filter3_d_522_5" x="116.901" y="81.5469" width="122.211" height="139.779" filterUnits="userSpaceOnUse" color-interpolation-filters="sRGB">
<feFlood flood-opacity="0" result="BackgroundImageFix"/>
<feColorMatrix in="SourceAlpha" type="matrix" values="0 0 0 0 0 0 0 0 0 0 0 0 0 0 0 0 0 0 127 0" result="hardAlpha"/>
<feOffset dy="2.7643"/>
<feGaussianBlur stdDeviation="1.38215"/>
<feColorMatrix type="matrix" values="0 0 0 0 0 0 0 0 0 0 0 0 0 0 0 0 0 0 0.25 0"/>
<feBlend mode="normal" in2="BackgroundImageFix" result="effect1_dropShadow_522_5"/>
<feBlend mode="normal" in="SourceGraphic" in2="effect1_dropShadow_522_5" result="shape"/>
</filter>
<filter id="filter4_d_522_5" x="116.901" y="106.68" width="114.646" height="114.646" filterUnits="userSpaceOnUse" color-interpolation-filters="sRGB">
<feFlood flood-opacity="0" result="BackgroundImageFix"/>
<feColorMatrix in="SourceAlpha" type="matrix" values="0 0 0 0 0 0 0 0 0 0 0 0 0 0 0 0 0 0 127 0" result="hardAlpha"/>
<feOffset dy="2.7643"/>
<feGaussianBlur stdDeviation="1.38215"/>
<feColorMatrix type="matrix" values="0 0 0 0 0 0 0 0 0 0 0 0 0 0 0 0 0 0 0.25 0"/>
<feBlend mode="normal" in2="BackgroundImageFix" result="effect1_dropShadow_522_5"/>
<feBlend mode="normal" in="SourceGraphic" in2="effect1_dropShadow_522_5" result="shape"/>
</filter>
</defs>
</svg>
